<?xml version="1.0" encoding="UTF-8" standalone="no"?>
<!DOCTYPE svg PUBLIC "-//W3C//DTD SVG 1.1//EN" "http://www.w3.org/Graphics/SVG/1.1/DTD/svg11.dtd">
<svg version="1.1" xmlns="http://www.w3.org/2000/svg" xmlns:xlink="http://www.w3.org/1999/xlink" preserveAspectRatio="xMidYMid meet" viewBox="0 0 400 200" width="400" height="200"><defs><path d="M1.77 108.69C6.87 103.71 10.06 100.6 11.33 99.35C18.35 92.49 28.87 90.66 37.8 94.75C41.63 96.5 39.17 95.37 43.21 97.23C50.77 100.69 59.69 97.26 62.99 89.63C64.39 86.39 64.88 85.27 66.85 80.7C68.81 76.17 72.99 72.99 77.87 72.3C81.66 71.77 76.36 72.51 77.95 72.29C90.09 70.58 101.17 64.46 109.09 55.1C122.31 39.46 130.59 32.45 133.93 34.07C141.89 37.93 150.87 23.04 164.22 20.62C168.75 19.8 177.67 30.13 182.66 29.42C196.01 27.54 195.07 4.65 211.47 3.09C217.61 2.51 223.17 20.79 229.8 20.62C237.31 20.43 237.38 32.02 249.47 34.07C253.06 34.68 258.71 25.36 264.55 23.99C272.95 22.03 281.75 27.53 285.38 26.91C292.4 25.71 295.16 18.3 301.2 40.51C302.65 45.84 309.11 64.73 314.87 53.81C320.62 42.9 327.67 54.57 333.15 50.08C336.46 47.36 333.06 35.01 341.54 31.95C350.01 28.89 357.7 8.17 360.43 8.76C363.16 9.35 370.13 25.11 375.52 23.99C378.73 23.33 381.67 3.88 384.33 3.09C390.85 1.17 395.73 5.13 398.95 14.97L398.95 195.36L382.3 195.36L1.77 195.36L1.77 108.69Z" id="b7Ox4W3vVP"></path><path d="M0 110.31L399.68 110.31L399.68 200L0 200L0 110.31Z" id="j12N0vKh0o"></path><path d="M386.68 14.79L400 14.79L400 120.61L386.68 120.61L386.68 14.79Z" id="a7VGg5c45U"></path></defs><g><g><g><use xlink:href="#b7Ox4W3vVP" opacity="1" fill="#d2d2d2" fill-opacity="1"></use><g><use xlink:href="#b7Ox4W3vVP" opacity="1" fill-opacity="0" stroke="#747474" stroke-width="2" stroke-opacity="1"></use></g></g><g><use xlink:href="#j12N0vKh0o" opacity="1" fill="#d2d2d2" fill-opacity="1"></use></g><g><use xlink:href="#a7VGg5c45U" opacity="1" fill="#d2d2d2" fill-opacity="1"></use></g></g></g></svg>